<?xml version="1.0" encoding="UTF-8"?>
<svg fill="#1F1F1F" width="100pt" height="100pt" version="1.1" viewBox="0 0 100 100" xmlns="http://www.w3.org/2000/svg">
 <path d="m88.172 84.355h-3.5547v3.5469c0 1.0742-0.875 1.9492-1.9531 1.9492-1.0781 0-1.9531-0.875-1.9531-1.9492v-3.5469h-3.5547c-1.0781 0-1.9531-0.875-1.9531-1.9492 0-1.0781 0.875-1.9492 1.9531-1.9492h3.5547v-3.5469c0-1.0781 0.875-1.9492 1.9531-1.9492 1.0781 0 1.9531 0.87109 1.9531 1.9492v3.5469h3.5547c1.0781 0 1.9531 0.87109 1.9531 1.9492 0 1.0742-0.875 1.9492-1.9531 1.9492m0.22656-13.82c-0.007813-0.003906-0.015626-0.007812-0.023438-0.011718-0.17188-0.085938-0.35156-0.16406-0.53125-0.24219-0.042969-0.015625-0.089844-0.035156-0.13281-0.054688-0.14453-0.058593-0.28906-0.11719-0.43359-0.17187-0.070313-0.023438-0.14062-0.046876-0.21094-0.074219-0.12109-0.042969-0.24609-0.085938-0.37109-0.125-0.085937-0.027344-0.17187-0.050781-0.25781-0.078125-0.10938-0.035156-0.22266-0.066406-0.33594-0.09375-0.09375-0.027344-0.19141-0.050782-0.28906-0.074219-0.10547-0.027344-0.21094-0.050781-0.31641-0.074219-0.10156-0.023437-0.20312-0.046875-0.30859-0.066406s-0.21094-0.039062-0.31641-0.054688c-0.10547-0.019531-0.20703-0.035156-0.30859-0.050781-0.11328-0.015625-0.22656-0.03125-0.33984-0.042969-0.097656-0.011718-0.19531-0.023437-0.29297-0.035156-0.13281-0.011718-0.26563-0.019531-0.39844-0.03125-0.078125-0.003906-0.16016-0.011718-0.24219-0.015625-0.21484-0.007812-0.42969-0.015625-0.64844-0.015625-7.3242 0-13.281 5.9492-13.281 13.258 0 0.21875 0.003906 0.43359 0.015625 0.64844 0.003906 0.078125 0.011719 0.16016 0.015625 0.24219 0.007813 0.12891 0.019531 0.26172 0.03125 0.39453 0.007813 0.097656 0.023437 0.19531 0.035156 0.29297 0.011719 0.11328 0.023438 0.22656 0.042969 0.33984 0.015625 0.10156 0.03125 0.20312 0.046875 0.30469 0.019531 0.10938 0.039063 0.21484 0.058594 0.32031 0.019531 0.10156 0.042969 0.20312 0.0625 0.30469 0.023437 0.10547 0.050781 0.21094 0.074219 0.31641 0.023437 0.097657 0.050781 0.19531 0.074218 0.28906 0.03125 0.11328 0.0625 0.22656 0.097656 0.33594 0.023438 0.085938 0.050782 0.17188 0.078126 0.25781 0.039062 0.125 0.082031 0.25 0.12891 0.37109 0.023437 0.070312 0.046875 0.13672 0.070312 0.20703 0.058594 0.14453 0.11328 0.29297 0.17578 0.43359 0.015624 0.046876 0.035156 0.089844 0.050781 0.13281 0.078125 0.17969 0.16016 0.35938 0.24609 0.53516 0.003907 0.007813 0.003907 0.015625 0.007813 0.019531 2.1484 4.4414 6.707 7.5117 11.969 7.5117 7.3242 0 13.285-5.9492 13.285-13.258 0-5.2539-3.0781-9.8008-7.5273-11.945m-3.1875-55.945c-9.4258-9.4062-21.961-14.59-35.297-14.59-13.332 0-25.867 5.1836-35.293 14.59-9.4297 9.4102-14.621 21.922-14.621 35.227 0 13.309 5.1914 25.82 14.621 35.23 9.4258 9.4062 21.961 14.59 35.293 14.59 7.3516 0 14.41-1.5547 21.008-4.6172-1.6484-1.5391-3.1328-3.8516-2.6289-3.0938-5.7969 2.5312-11.965 3.8125-18.379 3.8125-12.172 0-23.617-4.6875-32.281-13.203 0.058594 0.054688 0.11328 0.10938 0.17188 0.16406 4.2461-2.6211 9.2344-5.1211 13.328-7.168 3.6133-1.8047 6.7344-3.3672 8.1758-4.4102 0.5-0.36328 1.1016-0.89453 1.1406-1.3945 0.089843-1.082-1.8516-3.0391-3.4141-4.6094-1.3867-1.3984-2.8242-2.8477-3.8711-4.4648-3.4414-5.3164-5.1172-11.516-3.4844-27.465 0.91406-8.9688 6.4258-13.215 10.891-15.199 4.6992-2.0898 9.1562-2.1172 9.3438-2.1172s4.6484 0.027344 9.3477 2.1172c4.4609 1.9844 9.9766 6.2305 10.891 15.199 1.6328 15.949-0.042969 22.148-3.4844 27.465-1.0469 1.6172-2.4844 3.0664-3.875 4.4648-1.5586 1.5703-3.5 3.5273-3.4102 4.6094 0.039063 0.5 0.64063 1.0312 1.1406 1.3945 1.2461 0.90234 3.75 2.1914 6.7422 3.6953 2.8242-5.625 8.6562-9.4922 15.375-9.4922 3.3633 0 6.6211 0.97656 9.3984 2.7891 0.37109 0.26172 1.9922 1.418 3.1641 2.6719 3.0703-6.5859 4.6289-13.633 4.6289-20.969 0-13.305-5.1914-25.816-14.621-35.227" fill-rule="evenodd"/>
</svg>
