<?xml version="1.0" encoding="UTF-8"?>
<svg fill="#1F1F1F" width="100pt" height="100pt" version="1.1" viewBox="0 0 100 100" xmlns="http://www.w3.org/2000/svg">
 <path d="m50 10.258c26.805 0 48.531 21.727 48.531 48.531 0 11.766-4.1875 22.555-11.156 30.957-3.8711-9.9336-18.934-13.289-23.055-15.246-2.668-1.2656-3.3281-5.3555-3.3945-8.6953 3.9727-4.0586 6.7305-10.688 6.7305-19.891 0-9.0586-7.4141-16.473-16.473-16.473h-2.3672c-9.0586 0-16.473 7.4141-16.473 16.473 0 9.2031 2.7578 15.832 6.7305 19.895-0.066407 3.3359-0.72656 7.4258-3.3945 8.6914-4.125 1.957-19.188 5.3125-23.055 15.246-6.9688-8.4023-11.156-19.191-11.156-30.957 0-26.805 21.727-48.531 48.531-48.531z" fill-rule="evenodd"/>
</svg>
