<svg xmlns="http://www.w3.org/2000/svg" viewBox="0 0 824 665"><defs><style>.cls-1{fill:#fcc901;}.cls-10,.cls-13,.cls-2{fill:#ed5252;}.cls-3{fill:#c79e03;}.cls-4,.cls-5,.cls-7{fill:#efe4d1;}.cls-10,.cls-12,.cls-13,.cls-14,.cls-15,.cls-16,.cls-19,.cls-4,.cls-5,.cls-7,.cls-8,.cls-9{stroke:#000;}.cls-10,.cls-11,.cls-12,.cls-14,.cls-15,.cls-16,.cls-17,.cls-18,.cls-4,.cls-5,.cls-8,.cls-9{stroke-miterlimit:10;}.cls-10,.cls-12,.cls-13,.cls-14,.cls-15,.cls-16,.cls-18,.cls-19,.cls-4,.cls-7,.cls-8,.cls-9{stroke-width:7px;}.cls-17,.cls-5{stroke-width:4px;}.cls-14,.cls-17,.cls-18,.cls-6,.cls-9{fill:#fff6ef;}.cls-13,.cls-16,.cls-17,.cls-18,.cls-19,.cls-7,.cls-9{stroke-linecap:round;}.cls-13,.cls-19,.cls-7{stroke-linejoin:round;}.cls-8{fill:#f2f2f2;}.cls-11,.cls-12,.cls-16{fill:none;}.cls-11{stroke:#fcc901;stroke-width:10px;}.cls-15{fill:#333;}.cls-17,.cls-18{stroke:#4d4d4d;}.cls-19{fill:#736357;}.cls-20{fill:#f69c04;}.cls-21{fill:#fbc902;}.cls-22{fill:#ffef30;}.cls-23{font-size:48px;fill:#ffec26;font-family:Futura-Medium, Futura;font-weight:500;}</style></defs><g id="Yellow_Square_BG" data-name="Yellow Square BG"><rect class="cls-1" width="824" height="665" rx="52.68"/><line class="cls-2" x1="396.25" y1="332.25" x2="425.75" y2="332.75"/></g><g id="Shadow"><path class="cls-3" d="M823,612.32V540.13L670.9,320.66l-20.59-14.51L238.21,487l8.16,53,97.14,125H770.32A52.69,52.69,0,0,0,823,612.32Z"/></g><g id="Layer_5" data-name="Layer 5"><polyline class="cls-3" points="473.59 226.83 490.59 252.83 609.59 332.83 643.59 308.83 545.59 174.83"/></g><g id="Piggy"><path class="cls-4" d="M235.51,465.2l8.55,68.94a12.62,12.62,0,0,0,12.52,11.06h15a12.62,12.62,0,0,0,12.48-10.79l5.42-37.21"/><path class="cls-4" d="M510.51,465.2,502,534.14a12.62,12.62,0,0,1-12.52,11.06h-15a12.62,12.62,0,0,1-12.48-10.79l-5.43-37.21"/><path class="cls-5" d="M612.62,322c4.77.24,8.31-4.69,11.84-7.32,8.5-6.35,19.92-10.54,30.51-7.56,18,5.08,26.78,32,13.87,46.18-6.22,6.84-17.57,9.63-26,5.14-13.6-7.28-10.47-29.28,4.4-32.94a8.86,8.86,0,0,1,10.62,5.29.59.59,0,0,1,.07.29c0,.28-3.87-.4-4.21-.43-9.39-.9-12.18,15.1-3.5,17.93,7.71,2.52,13.91-4.62,15.1-11.16,1.29-7-3.4-15-9.68-18.56-6.78-3.79-14.63-2.26-21,1.6a31.87,31.87,0,0,0-8.37,7c-1.79,2.24-4.48,6.61-3.84,9.55"/><ellipse class="cls-4" cx="413.26" cy="383.7" rx="221.25" ry="137"/><path class="cls-6" d="M630,394.7c-13.1,48-133.69,61.61-217,58l-3.05-.14c-61-2.87-201.09-20.7-211.95-69.86-11.17-50.65,116.34-127.7,192-132,16.49-.94,36,0,36,0,22.4,1.07,59.28,3.13,100,19,17.13,6.67,50,19.78,77,49,12.46,13.47,17.91,24.13,21,32C626,355.86,634.64,377.74,630,394.7Z"/><path class="cls-7" d="M296.51,459.2c7,4,9.18,9.94,9.56,11.51,3.85,15.77,8,64.43,8,64.43a12.62,12.62,0,0,0,12.52,11.06h15a12.62,12.62,0,0,0,12.48-10.79l4.76-32.68s0-8.72,11.66-14.53"/><path class="cls-7" d="M580.51,455.2c-7,4-9.17,9.94-9.55,11.51-3.85,15.77-8,64.43-8,64.43a12.62,12.62,0,0,1-12.52,11.06h-15a12.62,12.62,0,0,1-12.48-10.79l-4.76-32.68s0-8.72-11.67-14.53"/><path class="cls-8" d="M171.51,182.2s-22-49-10-61,50,25,50,25"/><path class="cls-8" d="M367.93,182.2s22-49,10-61-50,25-50,25"/><line class="cls-9" x1="191.51" y1="160.2" x2="174.51" y2="138.2"/><line class="cls-9" x1="347.93" y1="160.2" x2="364.93" y2="138.2"/><path class="cls-10" d="M372.65,352.55l.33,60.86a6.25,6.25,0,0,1-6.25,6.29l-17.22.5a5.7,5.7,0,0,1-6-6v-37"/><line class="cls-11" x1="343.51" y1="406.14" x2="372.51" y2="405.2"/><path class="cls-12" d="M372.65,352.55l.33,60.86a6.25,6.25,0,0,1-6.25,6.29l-17.22.5a5.7,5.7,0,0,1-6-6v-37"/><path class="cls-13" d="M176.51,325.2l-12,12c-5.64,5.92-4.2,17.67,2,23,17.61,15.1,57.71,42.63,102,43,46.66.38,92.13-36.11,109-56,5.35-6.3,4.16-15.5-2-21l-10-9"/><circle class="cls-6" cx="268.51" cy="249.2" r="118"/><path d="M268.51,134.7a114.5,114.5,0,1,1-81,33.53,113.78,113.78,0,0,1,81-33.53m0-7A121.5,121.5,0,1,0,390,249.2a121.5,121.5,0,0,0-121.5-121.5Z"/><line class="cls-14" x1="257.51" y1="216.2" x2="280.51" y2="216.2"/><path class="cls-14" d="M341.51,216.2s15,3,33-17"/><path class="cls-14" d="M196.24,216.16s-15,3-33-17"/><circle class="cls-15" cx="226.76" cy="215.95" r="30.75"/><circle class="cls-15" cx="311.13" cy="215.92" r="30.75"/><line class="cls-16" x1="257.51" y1="295.7" x2="257.51" y2="307.7"/><line class="cls-16" x1="280.51" y1="295.7" x2="280.51" y2="307.7"/><ellipse class="cls-12" cx="269.01" cy="299.2" rx="35.5" ry="26"/><line class="cls-17" x1="211.51" y1="224.2" x2="226.51" y2="208.2"/><line class="cls-18" x1="227.51" y1="221.2" x2="242.51" y2="205.2"/><line class="cls-17" x1="296.51" y1="224.2" x2="311.51" y2="208.2"/><line class="cls-18" x1="312.51" y1="221.2" x2="327.51" y2="205.2"/><path class="cls-19" d="M546.16,305.62a2.49,2.49,0,0,1-3.45,1.65,314.68,314.68,0,0,0-108.65-27.75,2.48,2.48,0,0,1-2.23-3.1q1.71-6.75,3.44-13.49a2.49,2.49,0,0,1,2.58-1.88,317.22,317.22,0,0,1,110.39,28.19,2.49,2.49,0,0,1,1.36,2.88Q547.88,298.87,546.16,305.62Z"/></g><g id="Coin"><circle class="cls-20" cx="509.59" cy="200.83" r="37.5"/><circle class="cls-21" cx="514.59" cy="204.83" r="37.5"/><path class="cls-22" d="M509.59,163.33a37.5,37.5,0,1,1-37.5,37.5,37.5,37.5,0,0,1,37.5-37.5m0-7a44.5,44.5,0,1,0,44.5,44.5,44.55,44.55,0,0,0-44.5-44.5Z"/><text class="cls-23" transform="translate(495.19 219.02)">$</text></g></svg>