<svg xmlns="http://www.w3.org/2000/svg" viewBox="0 0 243 308.39"><defs><style>.cls-1{fill:#f2f2f2;}.cls-1,.cls-10,.cls-2,.cls-3,.cls-5,.cls-6,.cls-8,.cls-9{stroke:#000;}.cls-1,.cls-10,.cls-11,.cls-12,.cls-13,.cls-14,.cls-2,.cls-3,.cls-4,.cls-5,.cls-8,.cls-9{stroke-miterlimit:10;}.cls-1,.cls-10,.cls-12,.cls-14,.cls-2,.cls-3,.cls-5,.cls-6,.cls-8,.cls-9{stroke-width:7px;}.cls-11,.cls-12,.cls-13,.cls-14,.cls-2,.cls-7,.cls-8{fill:#fff6ef;}.cls-10,.cls-11,.cls-12,.cls-13,.cls-14,.cls-2,.cls-6{stroke-linecap:round;}.cls-3,.cls-6{fill:#ed5252;}.cls-10,.cls-4,.cls-5{fill:none;}.cls-4{stroke:#fcc901;stroke-width:10px;}.cls-6{stroke-linejoin:round;}.cls-9{fill:#333;}.cls-11,.cls-12{stroke:#999;}.cls-11,.cls-13{stroke-width:4px;}.cls-13,.cls-14{stroke:gray;}</style></defs><g id="Layer_2" data-name="Layer 2"><g id="Piggy"><path class="cls-1" d="M24.5,66.89s-22-49-10-61,50,25,50,25"/><path class="cls-1" d="M220.92,66.89s22-49,10-61-50,25-50,25"/><line class="cls-2" x1="44.5" y1="44.89" x2="27.5" y2="22.89"/><line class="cls-2" x1="200.92" y1="44.89" x2="217.92" y2="22.89"/><path class="cls-3" d="M225.64,237.24l.33,60.87a6.26,6.26,0,0,1-6.26,6.28l-17.21.5a5.68,5.68,0,0,1-6-6v-37"/><line class="cls-4" x1="196.5" y1="290.84" x2="225.5" y2="289.89"/><path class="cls-5" d="M225.64,237.24l.33,60.87a6.26,6.26,0,0,1-6.26,6.28l-17.21.5a5.68,5.68,0,0,1-6-6v-37"/><path class="cls-6" d="M29.5,209.89l-12,12c-5.64,5.93-4.21,17.68,2,23,17.61,15.11,57.71,42.64,102,43,46.66.39,92.13-36.1,109-56,5.34-6.29,4.16-15.49-2-21l-10-9"/><circle class="cls-7" cx="121.5" cy="133.89" r="118"/><path d="M121.5,19.39a114.5,114.5,0,0,1,81,195.47A114.5,114.5,0,1,1,40.54,52.93a113.73,113.73,0,0,1,81-33.54m0-7A121.5,121.5,0,1,0,243,133.89,121.5,121.5,0,0,0,121.5,12.39Z"/><line class="cls-8" x1="110.5" y1="100.89" x2="133.5" y2="100.89"/><path class="cls-8" d="M194.5,100.89s15,3,33-17"/><path class="cls-8" d="M49.23,100.85s-15,3-33-17"/><circle class="cls-9" cx="79.75" cy="100.64" r="30.75"/><circle class="cls-9" cx="164.12" cy="100.61" r="30.75"/><line class="cls-10" x1="110.5" y1="180.39" x2="110.5" y2="192.39"/><line class="cls-10" x1="133.5" y1="180.39" x2="133.5" y2="192.39"/><ellipse class="cls-5" cx="122" cy="183.89" rx="35.5" ry="26"/><line class="cls-11" x1="64.5" y1="108.89" x2="79.5" y2="92.89"/><line class="cls-12" x1="80.5" y1="105.89" x2="95.5" y2="89.89"/><line class="cls-13" x1="149.5" y1="108.89" x2="164.5" y2="92.89"/><line class="cls-14" x1="165.5" y1="105.89" x2="180.5" y2="89.89"/></g></g></svg>