<svg xmlns="http://www.w3.org/2000/svg" viewBox="0 0 529.97 434.39"><defs><style>.cls-1,.cls-2,.cls-4{fill:#efe4d1;}.cls-1,.cls-10,.cls-11,.cls-12,.cls-13,.cls-18,.cls-2,.cls-4,.cls-5,.cls-6,.cls-7,.cls-9{stroke:#000;}.cls-1,.cls-11,.cls-12,.cls-13,.cls-14,.cls-15,.cls-16,.cls-17,.cls-2,.cls-5,.cls-6,.cls-7,.cls-8,.cls-9{stroke-miterlimit:10;}.cls-1,.cls-10,.cls-11,.cls-12,.cls-13,.cls-15,.cls-17,.cls-18,.cls-4,.cls-5,.cls-6,.cls-7,.cls-9{stroke-width:7px;}.cls-14,.cls-16,.cls-2{stroke-width:4px;}.cls-11,.cls-14,.cls-15,.cls-16,.cls-17,.cls-3,.cls-6{fill:#fff6ef;}.cls-10,.cls-13,.cls-14,.cls-15,.cls-16,.cls-17,.cls-18,.cls-4,.cls-6{stroke-linecap:round;}.cls-10,.cls-18,.cls-4{stroke-linejoin:round;}.cls-5{fill:#f2f2f2;}.cls-10,.cls-7{fill:#ed5252;}.cls-13,.cls-8,.cls-9{fill:none;}.cls-8{stroke:#fcc901;stroke-width:10px;}.cls-12{fill:#333;}.cls-14,.cls-15{stroke:#999;}.cls-16,.cls-17{stroke:gray;}.cls-18{fill:#736357;}</style></defs><g id="Layer_2" data-name="Layer 2"><g id="Piggy"><path class="cls-1" d="M88.5,349.89l8.55,68.95a12.6,12.6,0,0,0,12.51,11.05h15a12.6,12.6,0,0,0,12.47-10.79l5.43-37.21"/><path class="cls-1" d="M363.5,349.89,355,418.84a12.6,12.6,0,0,1-12.51,11.05h-15a12.6,12.6,0,0,1-12.47-10.79l-5.43-37.21"/><path class="cls-2" d="M465.61,206.71c4.76.24,8.31-4.69,11.83-7.32C486,193,497.37,188.85,508,191.83c18,5.08,26.78,32,13.87,46.18-6.21,6.83-17.57,9.63-26,5.13-13.6-7.27-10.47-29.27,4.39-32.93a8.85,8.85,0,0,1,10.62,5.29.51.51,0,0,1,.08.29c0,.28-3.87-.4-4.21-.43-9.39-.9-12.19,15.1-3.5,17.93,7.71,2.51,13.91-4.62,15.1-11.16,1.28-7-3.41-15-9.69-18.56-6.77-3.79-14.62-2.26-21,1.6a31.67,31.67,0,0,0-8.37,7c-1.79,2.25-4.48,6.62-3.84,9.56"/><ellipse class="cls-1" cx="266.25" cy="268.39" rx="221.25" ry="137"/><path class="cls-3" d="M483,279.39c-13.11,48-133.69,61.62-217,58l-3.05-.13c-61-2.87-201.1-20.7-211.95-69.87-11.18-50.64,116.34-127.69,192-132,16.48-.93,36,0,36,0,22.4,1.08,59.27,3.14,100,19,17.12,6.68,50,19.79,77,49,12.46,13.48,17.91,24.14,21,32C479,240.55,487.63,262.44,483,279.39Z"/><path class="cls-4" d="M149.5,343.89a19.93,19.93,0,0,1,9.56,11.51c3.84,15.77,8,64.44,8,64.44a12.6,12.6,0,0,0,12.51,11.05h15a12.6,12.6,0,0,0,12.47-10.79l4.77-32.67s0-8.72,11.66-14.54"/><path class="cls-4" d="M433.5,339.89a19.93,19.93,0,0,0-9.56,11.51c-3.84,15.77-8,64.44-8,64.44a12.6,12.6,0,0,1-12.51,11.05h-15a12.6,12.6,0,0,1-12.47-10.79l-4.77-32.67s0-8.72-11.66-14.54"/><path class="cls-5" d="M24.5,66.89s-22-49-10-61,50,25,50,25"/><path class="cls-5" d="M220.92,66.89s22-49,10-61-50,25-50,25"/><line class="cls-6" x1="44.5" y1="44.89" x2="27.5" y2="22.89"/><line class="cls-6" x1="200.92" y1="44.89" x2="217.92" y2="22.89"/><path class="cls-7" d="M225.64,237.24l.33,60.87a6.26,6.26,0,0,1-6.26,6.28l-17.21.5a5.68,5.68,0,0,1-6-6v-37"/><line class="cls-8" x1="196.5" y1="290.84" x2="225.5" y2="289.89"/><path class="cls-9" d="M225.64,237.24l.33,60.87a6.26,6.26,0,0,1-6.26,6.28l-17.21.5a5.68,5.68,0,0,1-6-6v-37"/><path class="cls-10" d="M29.5,209.89l-12,12c-5.64,5.93-4.21,17.68,2,23,17.61,15.11,57.71,42.64,102,43,46.66.39,92.13-36.1,109-56,5.34-6.29,4.16-15.49-2-21l-10-9"/><circle class="cls-3" cx="121.5" cy="133.89" r="118"/><path d="M121.5,19.39a114.5,114.5,0,0,1,81,195.47A114.5,114.5,0,1,1,40.54,52.93a113.73,113.73,0,0,1,81-33.54m0-7A121.5,121.5,0,1,0,243,133.89,121.5,121.5,0,0,0,121.5,12.39Z"/><line class="cls-11" x1="110.5" y1="100.89" x2="133.5" y2="100.89"/><path class="cls-11" d="M194.5,100.89s15,3,33-17"/><path class="cls-11" d="M49.23,100.85s-15,3-33-17"/><circle class="cls-12" cx="79.75" cy="100.64" r="30.75"/><circle class="cls-12" cx="164.12" cy="100.61" r="30.75"/><line class="cls-13" x1="110.5" y1="180.39" x2="110.5" y2="192.39"/><line class="cls-13" x1="133.5" y1="180.39" x2="133.5" y2="192.39"/><ellipse class="cls-9" cx="122" cy="183.89" rx="35.5" ry="26"/><line class="cls-14" x1="64.5" y1="108.89" x2="79.5" y2="92.89"/><line class="cls-15" x1="80.5" y1="105.89" x2="95.5" y2="89.89"/><line class="cls-16" x1="149.5" y1="108.89" x2="164.5" y2="92.89"/><line class="cls-17" x1="165.5" y1="105.89" x2="180.5" y2="89.89"/><path class="cls-18" d="M399.14,190.31A2.49,2.49,0,0,1,395.7,192,314.66,314.66,0,0,0,287,164.22a2.49,2.49,0,0,1-2.23-3.1l3.45-13.49a2.48,2.48,0,0,1,2.57-1.88,317.08,317.08,0,0,1,110.39,28.19,2.48,2.48,0,0,1,1.37,2.88Z"/></g></g></svg>